<svg xmlns="http://www.w3.org/2000/svg" xmlns:xlink="http://www.w3.org/1999/xlink" version="1.1" id="Layer_1" x="0px" y="0px" width="100px" height="100px" viewBox="-11.258 -0.327 100 100" enable-background="new -11.258 -0.327 100 100" xml:space="preserve">
<path d="M86.369,87.955L44.636,49.577c1.074-0.779,2.321-1.21,3.591-1.262c1.674-0.068,3.348-0.656,4.629-1.936l19.217-19.218  c0,0,18.61-17.764,11.958-24.418c-1.715-1.714-4.496-1.712-6.211,0.003L37.525,43.038l-2.815-2.589  c-1.421-1.42-2.37-3.135-2.861-4.942l-1.837-7.985l-0.003-0.002c-0.454-1.984-1.45-3.871-2.995-5.416  c-0.352-0.353-0.724-0.673-1.1-0.971L0.983,0.329c-0.383-0.311-0.948-0.29-1.306,0.067c-0.382,0.383-0.381,0.999,0.001,1.382  l21.545,21.203c0.526,0.526,0.525,1.378,0,1.904c-0.525,0.524-1.377,0.525-1.904,0L-2.4,3.857c-0.383-0.383-1.003-0.381-1.385,0.002  c-0.381,0.382-0.382,1,0.001,1.383L17.59,26.615c0.526,0.526,0.525,1.378,0,1.904c-0.526,0.526-1.378,0.526-1.904,0L-5.688,7.145  c-0.383-0.383-1.001-0.382-1.385,0.001c-0.382,0.381-0.382,0.999,0.001,1.382l21.028,21.721c0.526,0.526,0.526,1.377,0,1.903  c-0.525,0.525-1.377,0.526-1.904,0L-9.15,10.607c-0.383-0.383-1.002-0.381-1.385,0.001c-0.356,0.356-0.377,0.921-0.067,1.305  l20.807,24.928c0.293,0.382,0.617,0.752,0.968,1.104c1.545,1.544,3.431,2.541,5.416,2.994l0.003,0.003l7.983,1.839  c1.81,0.487,3.518,1.445,4.938,2.865l2.589,2.815L-6.047,86.608c-2.58,2.579-2.582,6.764,0,9.345c2.581,2.581,6.764,2.579,9.343,0  l35.582-40.126L77.025,97.3c2.58,2.581,6.764,2.581,9.345,0C88.948,94.721,88.949,90.536,86.369,87.955z"/>
</svg>